<svg xmlns="http://www.w3.org/2000/svg" viewBox="0 0 585.04 322.22">
                    <defs>
                        <style>
                            .cls-1 {
                                fill: #000000;
                            }
                        </style>
                    </defs>
                    <title>Asset 3</title>
                    <g id="Layer_2" data-name="Layer 2">
                        <g id="Layer_1-2" data-name="Layer 1">
                            <path class="cls-1"
                                d="M129.48,209.86v67.8H98.24A31.22,31.22,0,0,1,67,246.42V209.86a15.3,15.3,0,0,0-7.59-10.41A15.61,15.61,0,0,0,67,189V131.55a15.31,15.31,0,0,0-7.59-10.42H98.24a31.29,31.29,0,0,1,31.24,31.24V189H108.66V152.37A10.38,10.38,0,0,0,98.24,142H87.83V189a15.19,15.19,0,0,0,7.59,10.41,14.9,14.9,0,0,0-7.59,10.41v36.56a10.38,10.38,0,0,0,10.41,10.41h10.42V228.2H98.24V209.86h31.24Zm-39-65.41H93.9v51a15.91,15.91,0,0,1-3.47-6.19Zm0,65.09a15.8,15.8,0,0,1,3.47-6.18v49.78a8.35,8.35,0,0,1-3.47-5Z" />
                            <path class="cls-1"
                                d="M205.41,212.67a12.38,12.38,0,0,0-6.31,8.66V251.7A26,26,0,0,1,154.75,270a25.09,25.09,0,0,1-7.57-18.34V221.33a12.72,12.72,0,0,0-6.31-8.66,13,13,0,0,0,6.31-8.65V173.55a25.94,25.94,0,0,1,44.3-18.34,25,25,0,0,1,7.62,18.34V204A12.61,12.61,0,0,0,205.41,212.67Zm-40.92-39.12V204a12.61,12.61,0,0,0,6.31,8.65,12.38,12.38,0,0,0-6.31,8.66V251.7a8.65,8.65,0,1,0,17.3,0V221.33a12.74,12.74,0,0,0-6.3-8.66,13,13,0,0,0,6.3-8.65V173.55a8.65,8.65,0,1,0-17.3,0Zm5,35.79a13.1,13.1,0,0,1-2.89-5.14V172.11a7,7,0,0,1,2.89-4.15Zm0,48a6.89,6.89,0,0,1-2.89-4.15V221.05a13,13,0,0,1,2.89-5.13Z" />
                            <path class="cls-1"
                                d="M268.21,277.66H241.85a11.21,11.21,0,0,0,5.56-7.62V235.65a7.33,7.33,0,0,0-2.18-5.36,7.68,7.68,0,0,0-5.44-2.26h-7.63v42a10.92,10.92,0,0,0,5.56,7.62H211.36a11.24,11.24,0,0,0,5.56-7.62V228a11.24,11.24,0,0,0-5.56-7.62,11.51,11.51,0,0,0,5.56-7.63V170.7a11.28,11.28,0,0,0-5.56-7.63h28.43a22.91,22.91,0,0,1,22.87,22.87v19.22a22,22,0,0,1-5.88,15.25,21.84,21.84,0,0,1,5.88,15.24V270A10.91,10.91,0,0,0,268.21,277.66Zm-28.42-64.88a7.59,7.59,0,0,0,5.44-2.3,7.33,7.33,0,0,0,2.18-5.32V185.94a7.58,7.58,0,0,0-7.62-7.62h-7.63v34.46ZM236.61,211h-2.54V180.15h2.54Zm0,64.08a11.14,11.14,0,0,1-.71-1,15.16,15.16,0,0,1-1.83-4V229.78h2.54Zm-2.3.16a1.22,1.22,0,0,0-.24-.4v2.86h2.54v-.08A10.8,10.8,0,0,1,234.31,275.2Z" />
                            <path class="cls-1"
                                d="M287.59,185h4.5a8.83,8.83,0,0,0-4.5,6.17v18.44l9.76-21.66a7.26,7.26,0,0,0-3.14-3h19.72a7.69,7.69,0,0,0-2.76,2.31l-12.85,28.53,12.53,55.7a9.08,9.08,0,0,0,4.49,6.17H295.11a7.83,7.83,0,0,0,3.66-3.86l-8.93-39.38-2.25,5.07v32a8.83,8.83,0,0,0,4.5,6.17H270.75a9.06,9.06,0,0,0,4.5-6.17v-34a9,9,0,0,0-4.5-6.16,9.26,9.26,0,0,0,4.5-6.17v-34a9.06,9.06,0,0,0-4.5-6.17h16.84Zm3.6,3a8.81,8.81,0,0,0-1.74,3.47V201l1.74-4Zm0,60.91-1.74-7.9v30.32a9.31,9.31,0,0,0,1.74,3.54Z" />
                            <path class="cls-1"
                                d="M339.91,163.24h5.55a10.91,10.91,0,0,0-5.55,7.61v42h15.22v-42a11.2,11.2,0,0,0-5.55-7.61h26.33a10.91,10.91,0,0,0-5.55,7.61v42a11.12,11.12,0,0,0,5.55,7.61,10.91,10.91,0,0,0-5.55,7.61v42a10.91,10.91,0,0,0,5.55,7.61H349.58a11.2,11.2,0,0,0,5.55-7.61v-42H339.91v42a10.91,10.91,0,0,0,5.55,7.61H319.13a11.24,11.24,0,0,0,5.56-7.61v-42a11.24,11.24,0,0,0-5.56-7.61,11.47,11.47,0,0,0,5.56-7.61v-42a11.24,11.24,0,0,0-5.56-7.61h20.78Zm4.44,3.65a10.8,10.8,0,0,0-2.14,4.28v39.41h2.14Zm0,63.43h-2.14v39.41a11.48,11.48,0,0,0,2.14,4.36Z" />
                            <path class="cls-1"
                                d="M406.24,147.31h34.68v17.34H406.24v39.21h17.34V221.2H406.24v39.11h34.68v17.35H382.57a12.77,12.77,0,0,0,6.32-8.67V221.2a12.73,12.73,0,0,0-6.32-8.67,13,13,0,0,0,6.32-8.67V156a12.73,12.73,0,0,0-6.32-8.67h23.67Zm5.05,19.42H408.4v35.05h2.89Zm0,56.46H408.4v35.05h2.89Z" />
                            <path class="cls-1"
                                d="M481.84,174.65l16.93-43a11.39,11.39,0,0,0-5.23-5.12h32.09a12.2,12.2,0,0,0-5.23,5l-26.12,66a12.94,12.94,0,0,0,4.91,4.39,14.38,14.38,0,0,0-7.32,10v55.28a14.38,14.38,0,0,0,7.32,10h-34.7a14.76,14.76,0,0,0,7.31-10V212.07a14.76,14.76,0,0,0-7.31-10,12.21,12.21,0,0,0,4.81-4.39l-9.2-23.2-15-38v.21a7.31,7.31,0,0,1-.31-.94l-1.15-3a12.4,12.4,0,0,0-5.85-6.07h32.29a12,12,0,0,0-5.33,5.12Zm1.88-11.18-1.78,4.6L467.62,131.8a8.15,8.15,0,0,1,2.62-2.51Z" />
                            <path class="cls-1" d="M102.39,321.34V292.85h6.17v23.21H123.2v5.28Z" />
                            <path class="cls-1"
                                d="M164.11,310.14v6.08h16.13v5.28H158V292.85h20.86v5.28H164.11v6.44h13v5.57Z" />
                            <path class="cls-1"
                                d="M242.11,314.34a14.78,14.78,0,1,1-13-21.89A15,15,0,0,1,242.07,300c-2.52,1.28-2.72,1.4-5.52,2.8a8.43,8.43,0,0,0-7.41-4.2,8.65,8.65,0,0,0,0,17.29c3.21,0,6.41-1.6,7.57-4.32h-.64c-1.28,0-4.2,0-5.81,0a4.65,4.65,0,0,1-1.12,0v-5.28c4.05,0,9.69,0,14.61,0C243.75,307.14,243.59,312.42,242.11,314.34Z" />
                            <path class="cls-1"
                                d="M284.46,310.14v6.08h16.13v5.28H278.37V292.85h20.85v5.28H284.46v6.44h13v5.57Z" />
                            <path class="cls-1"
                                d="M342,301.81v19.77h-5.49V292.89h7.21l12.77,17.85V292.89h5.32v28.69h-5.32Z" />
                            <path class="cls-1"
                                d="M398.72,293h12.33c7.4,0,13,4.68,13,14.13,0,8.28-4.24,14.44-13,14.44H398.72ZM405,316.26h5.61c3.64,0,7.12-2.24,7.12-8.56,0-5.77-2-9.45-8.24-9.45H405Z" />
                            <path class="cls-1"
                                d="M464.68,313.06c.64,3.76,4,4.28,6.32,4.28s5.56-.64,5.56-3.56c0-6.08-17-2.16-17-12.85,0-5.88,5.53-8.64,10.69-8.64,6,0,11.45,2.6,11.45,9.2l-6.09-.88c-.76-3.32-3.68-3.44-5.64-3.44s-4.32.84-4.32,3.24c0,2.12,1.36,2.6,8.52,4.32,2.12.52,8.49,1.85,8.49,8.33,0,5.24-4.08,9.16-11.89,9.16-6.4,0-12.17-3.12-12.17-10.16Z" />
                            <path class="cls-1"
                                d="M429.56,26.63C383.83,33,353.15,54.41,353.15,54.41c-15.9,9.74-39,29.57-60.63,49.58-21.67-20-44.73-39.84-60.63-49.58,0,0-30.68-21.41-76.41-27.78C155.48,26.63,14.71,10.42,0,0,0,0,18.28,108.25,187.31,111.14c0,0,40.8-3.29,77.7,19,2.85,1.72,5.68,3.58,8.46,5.61,1.8,1.32,3.58,2.73,5.34,4.18a109.47,109.47,0,0,1,13.71,13.63,109.47,109.47,0,0,1,13.71-13.63c1.76-1.46,3.54-2.86,5.34-4.18,2.78-2,5.61-3.89,8.46-5.61,36.9-22.24,77.7-19,77.7-19C566.76,108.25,585,0,585,0,570.33,10.42,429.56,26.63,429.56,26.63ZM280.41,115.32c-26.9-24-61.35-49.67-99.46-66.12,0,0,38.65,6,103.85,62Zm24.22,0-4.39-4.14c65.2-56,103.85-62,103.85-62C366,65.65,331.53,91.36,304.63,115.32Z" />
                        </g>
                    </g>
                </svg>